Coordinates
version=1
nRows=28
nColumns=33
inDegrees=yes

Units are S.I. units (second, meters, Newtons, ...)
Angles are in degrees.

endheader
time	ground_thorax_rot_x	ground_thorax_rot_y	ground_thorax_rot_z	ground_thorax_tx	ground_thorax_ty	ground_thorax_tz	clav_prot_r	clav_elev_r	scapula_abduction_r	scapula_elevation_r	scapula_upward_rot_r	scapula_winging_r	shoulder_elv_r	plane_of_elev_r	axial_rot_r	elbow_flexion_r	pro_sup_r	wrist_flex_r	wrist_dev_r	clav_prot_l	clav_elev_l	scapula_abduction_l	scapula_elevation_l	scapula_upward_rot_l	scapula_winging_l	shoulder_elv_l	plane_of_elev_l	axial_rot_l	elbow_flexion_l	pro_sup_l	wrist_flex_l	wrist_dev_l	
4.8300	-36.984504	-7.672670	13.224373	-89.515190	767.864216	5.283521	2.182551	-45.000000	45.000000	-45.000000	-6.724388	2423.091456	-1918.768865	151.356585	-109.154021	1449.481979	30.111280	17.247296	10.845359	18.411181	37.540427	-45.000000	-38.040018	-32.090395	79.535190	66.159472	24.852086	-35.326551	2527.363425	24.593386	8.682149	-17.976986	
4.8400	-36.907329	-7.569230	13.040040	-87.621033	767.613226	5.417667	2.066451	-45.000000	45.000000	-45.000000	-6.378738	2423.249010	-1918.820532	151.335876	-109.441103	1449.414342	30.637280	17.207821	10.757800	18.284135	37.456730	-45.000000	-37.767978	-31.574221	79.488150	66.144855	24.788006	-35.451362	2527.293981	25.157872	8.588207	-17.968509	
4.8500	-36.843635	-7.435837	12.826032	-85.889695	767.430876	5.556604	1.922725	-45.000000	45.000000	-45.000000	-5.982911	2423.409455	-1918.858818	151.328068	-109.794210	1449.344986	30.995105	17.168980	10.704127	18.189320	37.388873	-45.000000	-37.514988	-31.034409	79.427174	66.140661	24.726257	-35.462879	2527.234031	25.682728	8.514381	-17.969151	
4.8600	-36.784578	-7.315922	12.645732	-84.314611	767.308002	5.696195	1.799614	-45.000000	45.000000	-45.000000	-5.638026	2423.551919	-1918.893345	151.312856	-110.186456	1449.269040	31.167314	17.126076	10.671743	18.091830	37.327873	-45.000000	-37.282095	-30.558623	79.365910	66.144883	24.681788	-35.388080	2527.186859	26.145490	8.456518	-17.974443	
4.8700	-36.734773	-7.200958	12.478959	-82.886637	767.236769	5.833269	1.686877	-45.000000	45.000000	-45.000000	-5.317983	2423.687172	-1918.924814	151.298478	-110.599629	1449.191515	31.159039	17.085028	10.665055	18.004966	37.268682	-45.000000	-37.083291	-30.126036	79.304152	66.137132	24.658912	-35.241663	2527.142139	26.538875	8.419180	-17.983343	
4.8800	-36.692208	-7.092126	12.329877	-81.594494	767.210715	5.966097	1.585921	-45.000000	45.000000	-45.000000	-5.027004	2423.813842	-1918.953173	151.285039	-111.010435	1449.114273	30.987721	17.044892	10.678393	17.928450	37.210218	-45.000000	-36.911599	-29.736646	79.245354	66.117038	24.655181	-35.045988	2527.101344	26.854581	8.401089	-17.994628	
4.8900	-36.665814	-6.981392	12.177157	-80.425905	767.224775	6.094806	1.478213	-45.000000	45.000000	-45.000000	-4.733946	2423.948496	-1918.976237	151.290189	-111.397699	1449.048667	30.689988	17.012735	10.713755	17.875340	37.147799	-45.000000	-36.779895	-29.351967	79.180813	66.070938	24.654780	-34.821808	2527.055442	27.098863	8.403619	-18.009058	
4.9000	-36.645482	-6.876621	12.039339	-79.368339	767.274974	6.220695	1.382235	-45.000000	45.000000	-45.000000	-4.462916	2424.070510	-1919.002192	151.293965	-111.738557	1448.987483	30.296649	16.980975	10.755167	17.824623	37.094988	-45.000000	-36.664504	-28.997355	79.122923	66.018829	24.664554	-34.596724	2527.008904	27.273231	8.420147	-18.023723	
4.9100	-36.636796	-6.769152	11.897591	-78.409448	767.358043	6.345982	1.281502	-45.000000	45.000000	-45.000000	-4.187151	2424.194424	-1919.026205	151.308950	-112.018029	1448.940396	29.845670	16.955649	10.804057	17.789489	37.050357	-45.000000	-36.573577	-28.646621	79.064276	65.955983	24.674763	-34.384919	2526.957972	27.389312	8.448391	-18.039291	
4.9200	-36.629875	-6.663400	11.764094	-77.538087	767.470919	6.472382	1.192044	-45.000000	45.000000	-45.000000	-3.922038	2424.300742	-1919.054783	151.314588	-112.225595	1448.900020	29.366609	16.930326	10.847395	17.762744	37.018875	-45.000000	-36.485412	-28.325819	79.022637	65.896718	24.704455	-34.204341	2526.905087	27.453823	8.480703	-18.051894	
4.9300	-36.625952	-6.570930	11.649698	-76.744832	767.610291	6.600944	1.110358	-45.000000	45.000000	-45.000000	-3.686469	2424.408132	-1919.077411	151.325572	-112.349812	1448.870684	28.889712	16.909079	10.886129	17.729747	37.005720	-45.000000	-36.407959	-28.036903	78.965090	65.856538	24.714667	-34.062344	2526.849530	27.476531	8.516808	-18.064135	
4.9400	-36.619992	-6.476205	11.536988	-76.022246	767.772091	6.730695	1.040216	-45.000000	45.000000	-45.000000	-3.452031	2424.492242	-1919.110101	151.318195	-112.406008	1448.844619	28.434934	16.887279	10.912718	17.711505	36.998845	-45.000000	-36.326898	-27.780183	78.932737	65.816964	24.755766	-33.962490	2526.793428	27.467006	8.548577	-18.070361	
4.9500	-36.614009	-6.394220	11.440381	-75.365507	767.951254	6.859380	0.973554	-45.000000	45.000000	-45.000000	-3.233502	2424.571297	-1919.140174	151.315544	-112.392383	1448.832918	28.020097	16.870899	10.928935	17.683012	37.006885	-45.000000	-36.250836	-27.549644	78.890500	65.796422	24.771921	-33.903104	2526.752692	27.435249	8.576726	-18.078592	
4.9600	-36.608348	-6.317593	11.348264	-74.772294	768.141553	6.983020	0.914711	-45.000000	45.000000	-45.000000	-3.020855	2424.632995	-1919.177979	151.304060	-112.327405	1448.834546	27.656356	16.859699	10.932601	17.661784	37.009126	-45.000000	-36.180421	-27.343518	78.870972	65.767834	24.802503	-33.881630	2526.728477	27.390170	8.595220	-18.084313	
4.9700	-36.605558	-6.258501	11.276128	-74.242636	768.335880	7.097656	0.856398	-45.000000	45.000000	-45.000000	-2.836271	2424.701414	-1919.203769	151.309420	-112.216178	1448.860656	27.355295	16.860104	10.927951	17.624637	37.014154	-45.000000	-36.127659	-27.155927	78.827016	65.752857	24.789060	-33.895355	2526.726945	27.341588	8.610525	-18.096294	
4.9800	-36.603674	-6.203118	11.205216	-73.777912	768.526723	7.199332	0.805949	-45.000000	45.000000	-45.000000	-2.659453	2424.752725	-1919.238642	151.304900	-112.086543	1448.898489	27.119788	16.866665	10.912399	17.599821	37.002597	-45.000000	-36.080069	-26.984649	78.815252	65.720213	24.799704	-33.936025	2526.738687	27.295966	8.613549	-18.104271	
4.9900	-36.601758	-6.158630	11.151172	-73.380160	768.706949	7.286023	0.754805	-45.000000	45.000000	-45.000000	-2.502460	2424.807277	-1919.263418	151.314387	-111.945433	1448.948865	26.950999	16.880665	10.889687	17.561501	36.995292	-45.000000	-36.036848	-26.824527	78.786267	65.705927	24.773667	-34.000243	2526.769573	27.261130	8.614720	-18.119240	
5.0000	-36.599786	-6.116939	11.100135	-73.051396	768.870030	7.357280	0.709964	-45.000000	45.000000	-45.000000	-2.362489	2424.852095	-1919.291068	151.318524	-111.808670	1449.001166	26.845361	16.899304	10.862819	17.532140	36.973593	-45.000000	-35.995087	-26.676489	78.777148	65.676639	24.768961	-34.077570	2526.797178	27.241308	8.606938	-18.128861	
5.0100	-36.597041	-6.083158	11.065292	-72.792484	769.011205	7.415322	0.667502	-45.000000	45.000000	-45.000000	-2.246613	2424.895709	-1919.307622	151.334487	-111.684295	1449.057069	26.796593	16.921453	10.832425	17.491246	36.956794	-45.000000	-35.954419	-26.542151	78.743339	65.669085	24.737129	-34.165776	2526.825106	27.240433	8.603028	-18.143737	
5.0200	-36.594315	-6.054378	11.035526	-72.604737	769.125210	7.462121	0.633889	-45.000000	45.000000	-45.000000	-2.145969	2424.920705	-1919.330758	151.343126	-111.586571	1449.107161	26.791184	16.942725	10.801044	17.459241	36.932176	-45.000000	-35.910636	-26.424120	78.728398	65.654999	24.729607	-34.248695	2526.844261	27.254624	8.594425	-18.153646	
5.0300	-36.595249	-6.031576	11.011483	-72.485046	769.212408	7.502825	0.605992	-45.000000	45.000000	-45.000000	-2.064067	2424.930217	-1919.354877	151.350010	-111.514380	1449.162819	26.818462	16.966767	10.770320	17.429310	36.904509	-45.000000	-35.868285	-26.317275	78.721806	65.643616	24.727584	-34.319491	2526.855355	27.282603	8.582751	-18.161324	
5.0400	-36.595225	-6.012793	10.991993	-72.431472	769.272313	7.540555	0.583008	-45.000000	45.000000	-45.000000	-2.000215	2424.929975	-1919.377036	151.355887	-111.467539	1449.213550	26.871744	16.991443	10.745991	17.405876	36.871590	-45.000000	-35.825675	-26.223377	78.729515	65.625641	24.742025	-34.373115	2526.860010	27.322118	8.568599	-18.166017	
5.0500	-36.591893	-5.993977	10.970860	-72.440544	769.307201	7.579152	0.565071	-45.000000	45.000000	-45.000000	-1.951367	2424.917334	-1919.398823	151.348254	-111.444136	1449.255315	26.947052	17.015620	10.726840	17.390472	36.829450	-45.000000	-35.784829	-26.138267	78.757387	65.590065	24.776393	-34.406587	2526.857333	27.371687	8.548107	-18.166009	
5.0600	-36.582284	-5.982600	10.955165	-72.512016	769.315856	7.618222	0.550668	-45.000000	45.000000	-45.000000	-1.914561	2424.903307	-1919.417998	151.338208	-111.447617	1449.279312	27.039900	17.034930	10.714476	17.375804	36.788822	-45.000000	-35.742630	-26.071953	78.790107	65.554606	24.809456	-34.422482	2526.858139	27.428966	8.530505	-18.168438	
5.0700	-36.568593	-5.976881	10.943053	-72.641592	769.301681	7.658543	0.538703	-45.000000	45.000000	-45.000000	-1.887002	2424.883630	-1919.433433	151.322617	-111.476253	1449.294895	27.145467	17.054622	10.707692	17.365636	36.748335	-45.000000	-35.698341	-26.018396	78.837583	65.513288	24.846498	-34.417276	2526.855120	27.490391	8.511345	-18.169819	
5.0800	-36.557640	-5.978272	10.937489	-72.826024	769.265778	7.696323	0.528404	-45.000000	45.000000	-45.000000	-1.872944	2424.871303	-1919.444604	151.318688	-111.529960	1449.303968	27.258586	17.070743	10.705508	17.344751	36.715393	-45.000000	-35.666880	-25.990063	78.858814	65.496390	24.855231	-34.404361	2526.865269	27.553144	8.507789	-18.182792	
5.0900	-36.547377	-5.989682	10.939652	-73.059279	769.212364	7.728755	0.520214	-45.000000	45.000000	-45.000000	-1.871365	2424.858848	-1919.449226	151.318326	-111.606725	1449.312133	27.372926	17.090456	10.708919	17.327726	36.690670	-45.000000	-35.638089	-25.979636	78.881753	65.486354	24.857441	-34.371909	2526.870996	27.609909	8.506637	-18.196271	
5.1000	-36.545231	-6.008276	10.948360	-73.335950	769.145009	7.751141	0.518688	-45.000000	45.000000	-45.000000	-1.881240	2424.842032	-1919.456646	151.322731	-111.710002	1449.319326	27.483293	17.106638	10.711725	17.307893	36.676925	-45.000000	-35.623537	-25.998521	78.884173	65.501019	24.842185	-34.330896	2526.880719	27.657381	8.517402	-18.216002	
